<svg version="1.2" xmlns="http://www.w3.org/2000/svg" viewBox="0 0 650 100" width="650" height="100">
	<title>4888291-ai</title>
	<style>
		.s0 { fill: #003959 } 
	</style>
	<g id="OBJECTS">
		<path id="&lt;Path&gt;" class="s0" d="m21.1 50q35.5-1.2 71-1.6c23.7-0.3 47.3-0.4 71-0.4 23.6 0 47.3 0.1 71 0.4q35.4 0.4 70.9 1.6-35.5 1.2-70.9 1.6c-23.7 0.3-47.4 0.4-71 0.4-23.7 0-47.3-0.1-71-0.4q-35.5-0.4-71-1.6zm323.9 0q35.5-1.2 70.9-1.6c23.7-0.3 47.4-0.4 71-0.4 23.7 0 47.3 0.1 71 0.4q35.5 0.4 71 1.6-35.5 1.2-71 1.6c-23.7 0.3-47.3 0.4-71 0.4-23.6 0-47.3-0.1-71-0.4q-35.4-0.4-70.9-1.6zm-20 45.1l-20-45.1 20-45.1 20 45.1zm-41.7-45.1c0 6 4.9 10.9 10.8 10.9 6 0 10.9-4.9 10.9-10.9 0-6-4.9-10.8-10.9-10.8-5.9 0-10.8 4.8-10.8 10.8zm61.6 0c0 6 4.9 10.9 10.9 10.9 6 0 10.8-4.9 10.8-10.9 0-6-4.8-10.8-10.8-10.8-6 0-10.9 4.8-10.9 10.8zm-102 0l19.5 19.5 19.4-19.5-19.4-19.5zm144-19.4l-19.4 19.4 19.4 19.5 19.5-19.5z"/>
	</g>
</svg>